<mxfile host="drawio-plugin" modified="2021-10-16T08:58:56.980Z" agent="5.0 (Windows NT 6.2; Win64; x64) AppleWebKit/537.36 (KHTML, like Gecko) Chrome/89.0.4389.114 Safari/537.36" etag="7xVTBfsII6oBYNLTrY-C" version="14.7.4" type="embed"><diagram id="0rd0etsqVsn7Rf6HxgIl" name="Page-1"><mxGraphModel dx="945" dy="441" grid="1" gridSize="10" guides="1" tooltips="1" connect="1" arrows="1" fold="1" page="1" pageScale="1" pageWidth="827" pageHeight="1169" math="0" shadow="0"><root><mxCell id="0"/><mxCell id="1" parent="0"/><mxCell id="lCjtpsMRXlnKQuZtC6T7-1" value="CGestioneUtenti" style="swimlane;fontStyle=1;align=center;verticalAlign=top;childLayout=stackLayout;horizontal=1;startSize=26;horizontalStack=0;resizeParent=1;resizeParentMax=0;resizeLast=0;collapsible=1;marginBottom=0;" parent="1" vertex="1"><mxGeometry x="84" y="50" width="660" height="232" as="geometry"><mxRectangle x="410" y="80" width="130" height="26" as="alternateBounds"/></mxGeometry></mxCell><mxCell id="lCjtpsMRXlnKQuZtC6T7-8" value="+ registrazione(string nome, string cognome, string email, string password, array fotoProfilo, string corsoStudio): bool" style="text;strokeColor=none;fillColor=none;align=left;verticalAlign=top;spacingLeft=4;spacingRight=4;overflow=hidden;rotatable=0;points=[[0,0.5],[1,0.5]];portConstraint=eastwest;" parent="lCjtpsMRXlnKQuZtC6T7-1" vertex="1"><mxGeometry y="26" width="660" height="26" as="geometry"/></mxCell><mxCell id="lCjtpsMRXlnKQuZtC6T7-10" value="+ recuperoPassword(string email): bool" style="text;strokeColor=none;fillColor=none;align=left;verticalAlign=top;spacingLeft=4;spacingRight=4;overflow=hidden;rotatable=0;points=[[0,0.5],[1,0.5]];portConstraint=eastwest;" parent="lCjtpsMRXlnKQuZtC6T7-1" vertex="1"><mxGeometry y="52" width="660" height="30" as="geometry"/></mxCell><mxCell id="lCjtpsMRXlnKQuZtC6T7-9" value="+ login(string email, string password): bool" style="text;strokeColor=none;fillColor=none;align=left;verticalAlign=top;spacingLeft=4;spacingRight=4;overflow=hidden;rotatable=0;points=[[0,0.5],[1,0.5]];portConstraint=eastwest;" parent="lCjtpsMRXlnKQuZtC6T7-1" vertex="1"><mxGeometry y="82" width="660" height="30" as="geometry"/></mxCell><mxCell id="lCjtpsMRXlnKQuZtC6T7-12" value="+ logout(): bool" style="text;strokeColor=none;fillColor=none;align=left;verticalAlign=top;spacingLeft=4;spacingRight=4;overflow=hidden;rotatable=0;points=[[0,0.5],[1,0.5]];portConstraint=eastwest;" parent="lCjtpsMRXlnKQuZtC6T7-1" vertex="1"><mxGeometry y="112" width="660" height="30" as="geometry"/></mxCell><mxCell id="lCjtpsMRXlnKQuZtC6T7-13" value="+ editShowPersonalProfile(): EUser" style="text;strokeColor=none;fillColor=none;align=left;verticalAlign=top;spacingLeft=4;spacingRight=4;overflow=hidden;rotatable=0;points=[[0,0.5],[1,0.5]];portConstraint=eastwest;" parent="lCjtpsMRXlnKQuZtC6T7-1" vertex="1"><mxGeometry y="142" width="660" height="30" as="geometry"/></mxCell><mxCell id="lCjtpsMRXlnKQuZtC6T7-14" value="+ showProfile(int userID): EUser" style="text;strokeColor=none;fillColor=none;align=left;verticalAlign=top;spacingLeft=4;spacingRight=4;overflow=hidden;rotatable=0;points=[[0,0.5],[1,0.5]];portConstraint=eastwest;" parent="lCjtpsMRXlnKQuZtC6T7-1" vertex="1"><mxGeometry y="172" width="660" height="30" as="geometry"/></mxCell><mxCell id="lCjtpsMRXlnKQuZtC6T7-21" value="+ rimuoviUser(int adminID, int userID):bool" style="text;strokeColor=none;fillColor=none;align=left;verticalAlign=top;spacingLeft=4;spacingRight=4;overflow=hidden;rotatable=0;points=[[0,0.5],[1,0.5]];portConstraint=eastwest;" parent="lCjtpsMRXlnKQuZtC6T7-1" vertex="1"><mxGeometry y="202" width="660" height="30" as="geometry"/></mxCell><mxCell id="lCjtpsMRXlnKQuZtC6T7-15" value="CGestioneAdmin" style="swimlane;fontStyle=1;align=center;verticalAlign=top;childLayout=stackLayout;horizontal=1;startSize=26;horizontalStack=0;resizeParent=1;resizeParentMax=0;resizeLast=0;collapsible=1;marginBottom=0;" parent="1" vertex="1"><mxGeometry x="20" y="310" width="376" height="176" as="geometry"><mxRectangle x="410" y="80" width="130" height="26" as="alternateBounds"/></mxGeometry></mxCell><mxCell id="lCjtpsMRXlnKQuZtC6T7-18" value="+ aggiungiModeratore(int adminID, int userID, int categoriaID): bool" style="text;strokeColor=none;fillColor=none;align=left;verticalAlign=top;spacingLeft=4;spacingRight=4;overflow=hidden;rotatable=0;points=[[0,0.5],[1,0.5]];portConstraint=eastwest;" parent="lCjtpsMRXlnKQuZtC6T7-15" vertex="1"><mxGeometry y="26" width="376" height="30" as="geometry"/></mxCell><mxCell id="lCjtpsMRXlnKQuZtC6T7-20" value="+ rimuoviModeratore(int adminID, int moderatoreID): bool" style="text;strokeColor=none;fillColor=none;align=left;verticalAlign=top;spacingLeft=4;spacingRight=4;overflow=hidden;rotatable=0;points=[[0,0.5],[1,0.5]];portConstraint=eastwest;" parent="lCjtpsMRXlnKQuZtC6T7-15" vertex="1"><mxGeometry y="56" width="376" height="30" as="geometry"/></mxCell><mxCell id="lCjtpsMRXlnKQuZtC6T7-22" value="+ elencaUsers(): array" style="text;strokeColor=none;fillColor=none;align=left;verticalAlign=top;spacingLeft=4;spacingRight=4;overflow=hidden;rotatable=0;points=[[0,0.5],[1,0.5]];portConstraint=eastwest;" parent="lCjtpsMRXlnKQuZtC6T7-15" vertex="1"><mxGeometry y="86" width="376" height="30" as="geometry"/></mxCell><mxCell id="lCjtpsMRXlnKQuZtC6T7-46" value="+ visualizzaCategoriePaginate(): array" style="text;strokeColor=none;fillColor=none;align=left;verticalAlign=top;spacingLeft=4;spacingRight=4;overflow=hidden;rotatable=0;points=[[0,0.5],[1,0.5]];portConstraint=eastwest;" parent="lCjtpsMRXlnKQuZtC6T7-15" vertex="1"><mxGeometry y="116" width="376" height="30" as="geometry"/></mxCell><mxCell id="lCjtpsMRXlnKQuZtC6T7-48" value="+ visualizzaPannelloDiControllo(): bool" style="text;strokeColor=none;fillColor=none;align=left;verticalAlign=top;spacingLeft=4;spacingRight=4;overflow=hidden;rotatable=0;points=[[0,0.5],[1,0.5]];portConstraint=eastwest;" parent="lCjtpsMRXlnKQuZtC6T7-15" vertex="1"><mxGeometry y="146" width="376" height="30" as="geometry"/></mxCell><mxCell id="lCjtpsMRXlnKQuZtC6T7-23" value="CGestioneThreads" style="swimlane;fontStyle=1;align=center;verticalAlign=top;childLayout=stackLayout;horizontal=1;startSize=26;horizontalStack=0;resizeParent=1;resizeParentMax=0;resizeLast=0;collapsible=1;marginBottom=0;" parent="1" vertex="1"><mxGeometry x="20" y="520" width="515" height="318" as="geometry"><mxRectangle x="435" y="510" width="150" height="26" as="alternateBounds"/></mxGeometry></mxCell><mxCell id="lCjtpsMRXlnKQuZtC6T7-25" value="+ creaThread(int userID, string titolo, int categoriaID,string testo, allegati allegati): boolean" style="text;strokeColor=none;fillColor=none;align=left;verticalAlign=top;spacingLeft=4;spacingRight=4;overflow=hidden;rotatable=0;points=[[0,0.5],[1,0.5]];portConstraint=eastwest;" parent="lCjtpsMRXlnKQuZtC6T7-23" vertex="1"><mxGeometry y="26" width="515" height="30" as="geometry"/></mxCell><mxCell id="lCjtpsMRXlnKQuZtC6T7-26" value="+ rispondiThread(int userID, string testo, int threadID): bool" style="text;strokeColor=none;fillColor=none;align=left;verticalAlign=top;spacingLeft=4;spacingRight=4;overflow=hidden;rotatable=0;points=[[0,0.5],[1,0.5]];portConstraint=eastwest;" parent="lCjtpsMRXlnKQuZtC6T7-23" vertex="1"><mxGeometry y="56" width="515" height="30" as="geometry"/></mxCell><mxCell id="lCjtpsMRXlnKQuZtC6T7-27" value="+ valutaThread(int userID, int valore, int threadID): bool" style="text;strokeColor=none;fillColor=none;align=left;verticalAlign=top;spacingLeft=4;spacingRight=4;overflow=hidden;rotatable=0;points=[[0,0.5],[1,0.5]];portConstraint=eastwest;" parent="lCjtpsMRXlnKQuZtC6T7-23" vertex="1"><mxGeometry y="86" width="515" height="30" as="geometry"/></mxCell><mxCell id="lCjtpsMRXlnKQuZtC6T7-30" value="+ visualizzaThread(int threadID) EThread" style="text;strokeColor=none;fillColor=none;align=left;verticalAlign=top;spacingLeft=4;spacingRight=4;overflow=hidden;rotatable=0;points=[[0,0.5],[1,0.5]];portConstraint=eastwest;" parent="lCjtpsMRXlnKQuZtC6T7-23" vertex="1"><mxGeometry y="116" width="515" height="30" as="geometry"/></mxCell><mxCell id="lCjtpsMRXlnKQuZtC6T7-31" value="+ elencaThreads(int categoriaID):array" style="text;strokeColor=none;fillColor=none;align=left;verticalAlign=top;spacingLeft=4;spacingRight=4;overflow=hidden;rotatable=0;points=[[0,0.5],[1,0.5]];portConstraint=eastwest;" parent="lCjtpsMRXlnKQuZtC6T7-23" vertex="1"><mxGeometry y="146" width="515" height="30" as="geometry"/></mxCell><mxCell id="lCjtpsMRXlnKQuZtC6T7-32" value="+ threadPiùDiscusso(int categoriaID): EThread" style="text;strokeColor=none;fillColor=none;align=left;verticalAlign=top;spacingLeft=4;spacingRight=4;overflow=hidden;rotatable=0;points=[[0,0.5],[1,0.5]];portConstraint=eastwest;" parent="lCjtpsMRXlnKQuZtC6T7-23" vertex="1"><mxGeometry y="176" width="515" height="30" as="geometry"/></mxCell><mxCell id="lCjtpsMRXlnKQuZtC6T7-33" value="+ threadValutazionePiùAlta(int categoriaID): EThread" style="text;strokeColor=none;fillColor=none;align=left;verticalAlign=top;spacingLeft=4;spacingRight=4;overflow=hidden;rotatable=0;points=[[0,0.5],[1,0.5]];portConstraint=eastwest;" parent="lCjtpsMRXlnKQuZtC6T7-23" vertex="1"><mxGeometry y="206" width="515" height="30" as="geometry"/></mxCell><mxCell id="lCjtpsMRXlnKQuZtC6T7-34" value="+ ricerca(string titoloThread, array categorieIDs): array" style="text;strokeColor=none;fillColor=none;align=left;verticalAlign=top;spacingLeft=4;spacingRight=4;overflow=hidden;rotatable=0;points=[[0,0.5],[1,0.5]];portConstraint=eastwest;" parent="lCjtpsMRXlnKQuZtC6T7-23" vertex="1"><mxGeometry y="236" width="515" height="30" as="geometry"/></mxCell><mxCell id="lCjtpsMRXlnKQuZtC6T7-35" value="+ rimuoviThread(int userID, int threadID): bool" style="text;strokeColor=none;fillColor=none;align=left;verticalAlign=top;spacingLeft=4;spacingRight=4;overflow=hidden;rotatable=0;points=[[0,0.5],[1,0.5]];portConstraint=eastwest;" parent="lCjtpsMRXlnKQuZtC6T7-23" vertex="1"><mxGeometry y="266" width="515" height="26" as="geometry"/></mxCell><mxCell id="lCjtpsMRXlnKQuZtC6T7-36" value="+ rimuoviRisposta(int userID, int rispostaID, int threadID): bool" style="text;strokeColor=none;fillColor=none;align=left;verticalAlign=top;spacingLeft=4;spacingRight=4;overflow=hidden;rotatable=0;points=[[0,0.5],[1,0.5]];portConstraint=eastwest;" parent="lCjtpsMRXlnKQuZtC6T7-23" vertex="1"><mxGeometry y="292" width="515" height="26" as="geometry"/></mxCell><mxCell id="lCjtpsMRXlnKQuZtC6T7-37" value="CGestioneCategorie" style="swimlane;fontStyle=1;align=center;verticalAlign=top;childLayout=stackLayout;horizontal=1;startSize=26;horizontalStack=0;resizeParent=1;resizeParentMax=0;resizeLast=0;collapsible=1;marginBottom=0;" parent="1" vertex="1"><mxGeometry x="20" y="860" width="520" height="142" as="geometry"><mxRectangle x="360" y="910" width="100" height="26" as="alternateBounds"/></mxGeometry></mxCell><mxCell id="lCjtpsMRXlnKQuZtC6T7-39" value="+ elencaCategorie(): array" style="text;strokeColor=none;fillColor=none;align=left;verticalAlign=top;spacingLeft=4;spacingRight=4;overflow=hidden;rotatable=0;points=[[0,0.5],[1,0.5]];portConstraint=eastwest;" parent="lCjtpsMRXlnKQuZtC6T7-37" vertex="1"><mxGeometry y="26" width="520" height="30" as="geometry"/></mxCell><mxCell id="lCjtpsMRXlnKQuZtC6T7-41" value="+ visualizzaCategoria(int categoriaID) ECategoria" style="text;strokeColor=none;fillColor=none;align=left;verticalAlign=top;spacingLeft=4;spacingRight=4;overflow=hidden;rotatable=0;points=[[0,0.5],[1,0.5]];portConstraint=eastwest;" parent="lCjtpsMRXlnKQuZtC6T7-37" vertex="1"><mxGeometry y="56" width="520" height="30" as="geometry"/></mxCell><mxCell id="lCjtpsMRXlnKQuZtC6T7-47" value="+ rimuoviCategoria(int adminID, int categoriaID): bool" style="text;strokeColor=none;fillColor=none;align=left;verticalAlign=top;spacingLeft=4;spacingRight=4;overflow=hidden;rotatable=0;points=[[0,0.5],[1,0.5]];portConstraint=eastwest;" parent="lCjtpsMRXlnKQuZtC6T7-37" vertex="1"><mxGeometry y="86" width="520" height="30" as="geometry"/></mxCell><mxCell id="lCjtpsMRXlnKQuZtC6T7-17" value="+ aggiungiCategoria(int adminID, string nomeCategoria, array icona, string descrizione): bool" style="text;strokeColor=none;fillColor=none;align=left;verticalAlign=top;spacingLeft=4;spacingRight=4;overflow=hidden;rotatable=0;points=[[0,0.5],[1,0.5]];portConstraint=eastwest;" parent="lCjtpsMRXlnKQuZtC6T7-37" vertex="1"><mxGeometry y="116" width="520" height="26" as="geometry"/></mxCell><mxCell id="lCjtpsMRXlnKQuZtC6T7-42" value="CGestioneChat" style="swimlane;fontStyle=1;align=center;verticalAlign=top;childLayout=stackLayout;horizontal=1;startSize=26;horizontalStack=0;resizeParent=1;resizeParentMax=0;resizeLast=0;collapsible=1;marginBottom=0;" parent="1" vertex="1"><mxGeometry x="20" y="1030" width="520" height="106" as="geometry"><mxRectangle x="360" y="910" width="100" height="26" as="alternateBounds"/></mxGeometry></mxCell><mxCell id="lCjtpsMRXlnKQuZtC6T7-43" value="+ visualizzaChat(): array" style="text;strokeColor=none;fillColor=none;align=left;verticalAlign=top;spacingLeft=4;spacingRight=4;overflow=hidden;rotatable=0;points=[[0,0.5],[1,0.5]];portConstraint=eastwest;" parent="lCjtpsMRXlnKQuZtC6T7-42" vertex="1"><mxGeometry y="26" width="520" height="24" as="geometry"/></mxCell><mxCell id="lCjtpsMRXlnKQuZtC6T7-44" value="+ rimuoviMessaggio(int userID, int messID): bool" style="text;strokeColor=none;fillColor=none;align=left;verticalAlign=top;spacingLeft=4;spacingRight=4;overflow=hidden;rotatable=0;points=[[0,0.5],[1,0.5]];portConstraint=eastwest;" parent="lCjtpsMRXlnKQuZtC6T7-42" vertex="1"><mxGeometry y="50" width="520" height="26" as="geometry"/></mxCell><mxCell id="lCjtpsMRXlnKQuZtC6T7-45" value="+ creaMessaggio(string testo, int userID): bool" style="text;strokeColor=none;fillColor=none;align=left;verticalAlign=top;spacingLeft=4;spacingRight=4;overflow=hidden;rotatable=0;points=[[0,0.5],[1,0.5]];portConstraint=eastwest;" parent="lCjtpsMRXlnKQuZtC6T7-42" vertex="1"><mxGeometry y="76" width="520" height="30" as="geometry"/></mxCell><mxCell id="lCjtpsMRXlnKQuZtC6T7-49" value="CGestioneHome" style="swimlane;fontStyle=1;align=center;verticalAlign=top;childLayout=stackLayout;horizontal=1;startSize=26;horizontalStack=0;resizeParent=1;resizeParentMax=0;resizeLast=0;collapsible=1;marginBottom=0;" parent="1" vertex="1"><mxGeometry x="430" y="310" width="376" height="56" as="geometry"><mxRectangle x="410" y="80" width="130" height="26" as="alternateBounds"/></mxGeometry></mxCell><mxCell id="lCjtpsMRXlnKQuZtC6T7-50" value="+ visualizzaHome(): bool" style="text;strokeColor=none;fillColor=none;align=left;verticalAlign=top;spacingLeft=4;spacingRight=4;overflow=hidden;rotatable=0;points=[[0,0.5],[1,0.5]];portConstraint=eastwest;" parent="lCjtpsMRXlnKQuZtC6T7-49" vertex="1"><mxGeometry y="26" width="376" height="30" as="geometry"/></mxCell><mxCell id="2" value="CSessione" style="swimlane;fontStyle=1;align=center;verticalAlign=top;childLayout=stackLayout;horizontal=1;startSize=26;horizontalStack=0;resizeParent=1;resizeParentMax=0;resizeLast=0;collapsible=1;marginBottom=0;" vertex="1" parent="1"><mxGeometry x="580" y="486" width="215" height="140" as="geometry"><mxRectangle x="435" y="510" width="150" height="26" as="alternateBounds"/></mxGeometry></mxCell><mxCell id="3" value="+ start()" style="text;strokeColor=none;fillColor=none;align=left;verticalAlign=top;spacingLeft=4;spacingRight=4;overflow=hidden;rotatable=0;points=[[0,0.5],[1,0.5]];portConstraint=eastwest;" vertex="1" parent="2"><mxGeometry y="26" width="215" height="24" as="geometry"/></mxCell><mxCell id="14" value="+ destroy()" style="text;strokeColor=none;fillColor=none;align=left;verticalAlign=top;spacingLeft=4;spacingRight=4;overflow=hidden;rotatable=0;points=[[0,0.5],[1,0.5]];portConstraint=eastwest;" vertex="1" parent="2"><mxGeometry y="50" width="215" height="30" as="geometry"/></mxCell><mxCell id="15" value="+ setUtenteSessione()" style="text;strokeColor=none;fillColor=none;align=left;verticalAlign=top;spacingLeft=4;spacingRight=4;overflow=hidden;rotatable=0;points=[[0,0.5],[1,0.5]];portConstraint=eastwest;" vertex="1" parent="2"><mxGeometry y="80" width="215" height="30" as="geometry"/></mxCell><mxCell id="16" value="+ getUtenteSessione()" style="text;strokeColor=none;fillColor=none;align=left;verticalAlign=top;spacingLeft=4;spacingRight=4;overflow=hidden;rotatable=0;points=[[0,0.5],[1,0.5]];portConstraint=eastwest;" vertex="1" parent="2"><mxGeometry y="110" width="215" height="30" as="geometry"/></mxCell><mxCell id="18" value="CFiles" style="swimlane;fontStyle=1;align=center;verticalAlign=top;childLayout=stackLayout;horizontal=1;startSize=26;horizontalStack=0;resizeParent=1;resizeParentMax=0;resizeLast=0;collapsible=1;marginBottom=0;" vertex="1" parent="1"><mxGeometry x="580" y="660" width="215" height="140" as="geometry"><mxRectangle x="435" y="510" width="150" height="26" as="alternateBounds"/></mxGeometry></mxCell><mxCell id="19" value="+ getFile()" style="text;strokeColor=none;fillColor=none;align=left;verticalAlign=top;spacingLeft=4;spacingRight=4;overflow=hidden;rotatable=0;points=[[0,0.5],[1,0.5]];portConstraint=eastwest;" vertex="1" parent="18"><mxGeometry y="26" width="215" height="24" as="geometry"/></mxCell><mxCell id="20" value="+ getNomeFile()" style="text;strokeColor=none;fillColor=none;align=left;verticalAlign=top;spacingLeft=4;spacingRight=4;overflow=hidden;rotatable=0;points=[[0,0.5],[1,0.5]];portConstraint=eastwest;" vertex="1" parent="18"><mxGeometry y="50" width="215" height="30" as="geometry"/></mxCell><mxCell id="21" value="+ getDimFile()" style="text;strokeColor=none;fillColor=none;align=left;verticalAlign=top;spacingLeft=4;spacingRight=4;overflow=hidden;rotatable=0;points=[[0,0.5],[1,0.5]];portConstraint=eastwest;" vertex="1" parent="18"><mxGeometry y="80" width="215" height="30" as="geometry"/></mxCell><mxCell id="22" value="+ getTipoFile()" style="text;strokeColor=none;fillColor=none;align=left;verticalAlign=top;spacingLeft=4;spacingRight=4;overflow=hidden;rotatable=0;points=[[0,0.5],[1,0.5]];portConstraint=eastwest;" vertex="1" parent="18"><mxGeometry y="110" width="215" height="30" as="geometry"/></mxCell></root></mxGraphModel></diagram></mxfile>